<?xml version="1.0" encoding="UTF-8" standalone="no"?>
<svg width="32px" height="40px" viewBox="0 0 32 40" version="1.1" xmlns="http://www.w3.org/2000/svg" xmlns:xlink="http://www.w3.org/1999/xlink" xmlns:sketch="http://www.bohemiancoding.com/sketch/ns">
    <!-- Generator: Sketch 3.0.4 (8053) - http://www.bohemiancoding.com/sketch -->
    <title>Book</title>
    <desc>Created with Sketch.</desc>
    <defs></defs>
    <g id="Icons" stroke="none" stroke-width="1" fill="none" fill-rule="evenodd" sketch:type="MSPage">
        <g id="Design-&amp;-Development" sketch:type="MSArtboardGroup" transform="translate(-205.000000, -80.000000)" fill="#231F1F">
            <g id="Book" sketch:type="MSLayerGroup" transform="translate(205.000000, 80.000000)">
                <path d="M15,18 C15,15.794 16.346,14 18,14 C19.654,14 21,15.794 21,18 C21,20.206 19.654,22 18,22 C16.346,22 15,20.206 15,18 L15,18 Z M30,4 L30,2 L4,2 C2.897,2 2,2.897 2,4 C2,5.103 2.897,6 4,6 L30,6 C31.103,6 32,6.897 32,8 L32,38 C32,39.103 31.103,40 30,40 L4,40 C1.794,40 0,38.206 0,36 L0,4 C0,1.794 1.794,0 4,0 L30,0 C31.103,0 32,0.897 32,2 L32,4 C32,4.552 31.553,5 31,5 C30.447,5 30,4.552 30,4 L30,4 Z M23,31 C23,30.448 22.553,30 22,30 L14,30 C13.447,30 13,30.448 13,31 C13,31.552 13.447,32 14,32 L22,32 C22.553,32 23,31.552 23,31 L23,31 Z M13,18 C13,21.309 15.243,24 18,24 C20.757,24 23,21.309 23,18 C23,14.691 20.757,12 18,12 C15.243,12 13,14.691 13,18 L13,18 Z M11,27 C11,27.552 11.447,28 12,28 L24,28 C24.553,28 25,27.552 25,27 C25,26.448 24.553,26 24,26 L12,26 C11.447,26 11,26.448 11,27 L11,27 Z M4,35 C4,35.552 4.447,36 5,36 C5.553,36 6,35.552 6,35 L6,11 C6,10.448 5.553,10 5,10 C4.447,10 4,10.448 4,11 L4,35 L4,35 Z" sketch:type="MSShapeGroup"></path>
            </g>
        </g>
    </g>
</svg>