<?xml version="1.0" encoding="UTF-8" standalone="no"?>
<svg width="16px" height="48px" viewBox="0 0 16 48" version="1.1" xmlns="http://www.w3.org/2000/svg" xmlns:xlink="http://www.w3.org/1999/xlink" xmlns:sketch="http://www.bohemiancoding.com/sketch/ns">
    <!-- Generator: Sketch 3.0.4 (8053) - http://www.bohemiancoding.com/sketch -->
    <title>Brush</title>
    <desc>Created with Sketch.</desc>
    <defs></defs>
    <g id="Icons" stroke="none" stroke-width="1" fill="none" fill-rule="evenodd" sketch:type="MSPage">
        <g id="Design-&amp;-Development" sketch:type="MSArtboardGroup" transform="translate(-332.000000, -76.000000)" fill="#231F1F">
            <g id="Brush" sketch:type="MSLayerGroup" transform="translate(332.000000, 76.000000)">
                <path d="M2.03825,20.196 C2.01825,20.097 2.01325,19.996 2.02425,19.895 L3.71025,3.879 C3.94225,1.667 5.79525,0 8.01825,0 C10.24125,0 12.09325,1.667 12.32625,3.878 L14.01225,19.895 C14.02325,19.996 14.01825,20.097 13.99925,20.196 L12.42225,28.077 C11.06125,27.4 9.55625,27.033 7.99125,27.033 C6.44525,27.033 4.95825,27.392 3.60925,28.054 L2.03825,20.196 L2.03825,20.196 Z M13.64625,31.385 C12.13525,29.868 10.12825,29.033 7.99125,29.033 C5.85525,29.033 3.84625,29.868 2.33625,31.385 C-0.77875,34.513 -0.77875,39.602 2.33625,42.729 L7.28225,47.696 C7.47025,47.884 7.72525,47.99 7.99125,47.99 C8.25725,47.99 8.51125,47.884 8.70025,47.696 L13.64525,42.729 C16.76125,39.602 16.76125,34.513 13.64625,31.385 L13.64625,31.385 Z" sketch:type="MSShapeGroup"></path>
            </g>
        </g>
    </g>
</svg>