<?xml version="1.0" encoding="UTF-8" standalone="no"?>
<svg width="37px" height="32px" viewBox="0 0 37 32" version="1.1" xmlns="http://www.w3.org/2000/svg" xmlns:xlink="http://www.w3.org/1999/xlink" xmlns:sketch="http://www.bohemiancoding.com/sketch/ns">
    <!-- Generator: Sketch 3.0.4 (8053) - http://www.bohemiancoding.com/sketch -->
    <title>Eye (unhide)</title>
    <desc>Created with Sketch.</desc>
    <defs></defs>
    <g id="Icons" stroke="none" stroke-width="1" fill="none" fill-rule="evenodd" sketch:type="MSPage">
        <g id="Design-&amp;-Development" sketch:type="MSArtboardGroup" transform="translate(-562.000000, -84.000000)" fill="#231F1F">
            <g id="Eye-(unhide)" sketch:type="MSLayerGroup" transform="translate(562.000000, 84.000000)">
                <path d="M2.80141331,11.243 L0.223413314,8.067 C-0.124586686,7.637 -0.0585866863,7.007 0.369413314,6.66 C0.798413314,6.312 1.42841331,6.378 1.77641331,6.806 L4.35441331,9.982 C4.70241331,10.411 4.63641331,11.041 4.20841331,11.389 C4.02241331,11.539 3.79941331,11.612 3.57841331,11.612 C3.28741331,11.612 2.99941331,11.486 2.80141331,11.243 L2.80141331,11.243 Z M9.62641331,6.853 C9.77241331,7.262 10.1564133,7.517 10.5684133,7.517 C10.6794133,7.517 10.7934133,7.498 10.9034133,7.459 C11.4234133,7.273 11.6954133,6.701 11.5094133,6.181 L10.1294133,2.309 C9.94341331,1.789 9.37041331,1.518 8.85141331,1.703 C8.33141331,1.889 8.06041331,2.461 8.24541331,2.981 L9.62641331,6.853 L9.62641331,6.853 Z M18.0000017,6.118 L18.0000017,6.118 C18.5520017,6.118 18.9990017,5.671 19.0000017,5.118 L19.0030017,1 C19.0030017,0.448 18.5560017,0 18.0030017,0 C17.4510017,0 17.0030017,0.447 17.0030017,0.999 L17.0000017,5.117 C16.9990017,5.67 17.4470017,6.117 18.0000017,6.118 L18.0000017,6.118 Z M26.1054133,7.466 C26.2164133,7.506 26.3294133,7.525 26.4414133,7.525 C26.8524133,7.525 27.2364133,7.27 27.3834133,6.861 L28.7664133,2.99 C28.9514133,2.47 28.6804133,1.898 28.1604133,1.712 C27.6414133,1.528 27.0684133,1.798 26.8824133,2.318 L25.4994133,6.188 C25.3144133,6.708 25.5854133,7.28 26.1054133,7.466 L26.1054133,7.466 Z M36.6394133,6.677 C36.2114133,6.328 35.5814133,6.393 35.2324133,6.821 L32.6514133,9.994 C32.3024133,10.422 32.3674133,11.052 32.7954133,11.401 C32.9814133,11.552 33.2044133,11.625 33.4264133,11.625 C33.7164133,11.625 34.0054133,11.499 34.2024133,11.257 L36.7834133,8.084 C37.1324133,7.655 37.0684133,7.026 36.6394133,6.677 L36.6394133,6.677 Z M35.4455,18.336 C36.1645,19.364 36.1665,20.694 35.4495,21.722 C33.5015,24.52 27.8985,31.029 17.9855,31.029 C8.1525,31.029 2.5085,24.527 0.5385,21.732 C-0.1795,20.714 -0.1795,19.345 0.5385,18.326 C2.5095,15.53 8.1535,9.029 17.9855,9.029 C27.8635,9.029 33.4865,15.538 35.4455,18.336 L35.4455,18.336 Z M24,20.029 C24,16.72 21.309,14.029 18,14.029 C14.692,14.029 12,16.72 12,20.029 C12,23.338 14.692,26.029 18,26.029 C21.309,26.029 24,23.338 24,20.029 L24,20.029 Z" sketch:type="MSShapeGroup"></path>
            </g>
        </g>
    </g>
</svg>