<?xml version="1.0" encoding="UTF-8" standalone="no"?>
<svg width="37px" height="44px" viewBox="0 0 37 44" version="1.1" xmlns="http://www.w3.org/2000/svg" xmlns:xlink="http://www.w3.org/1999/xlink" xmlns:sketch="http://www.bohemiancoding.com/sketch/ns">
    <!-- Generator: Sketch 3.0.4 (8053) - http://www.bohemiancoding.com/sketch -->
    <title>Eyedropper</title>
    <desc>Created with Sketch.</desc>
    <defs></defs>
    <g id="Icons" stroke="none" stroke-width="1" fill="none" fill-rule="evenodd" sketch:type="MSPage">
        <g id="Design-&amp;-Development" sketch:type="MSArtboardGroup" transform="translate(-86.000000, -238.000000)" fill="#231F1F">
            <g id="Eyedropper" sketch:type="MSLayerGroup" transform="translate(86.000000, 238.000000)">
                <path d="M30.04,15.771 L30.134,15.865 C31.31,17.041 31.31,18.955 30.134,20.132 C29.564,20.701 28.807,21.015 28,21.015 C27.194,21.015 26.437,20.701 25.867,20.132 L15.884,10.148 C15.314,9.578 15,8.821 15,8.015 C15,7.209 15.314,6.451 15.884,5.882 C17.022,4.742 19.01,4.741 20.15,5.882 L20.278,6.009 C21.169,2.557 24.31,0 28.037,0 C32.455,0 36.05,3.594 36.05,8.012 C36.05,11.739 33.492,14.88 30.04,15.771 L30.04,15.771 Z M15.66,12.2925 C15.27,11.9025 14.637,11.9025 14.246,12.2925 L7.288,19.2505 C7.101,19.4385 6.995,19.6925 6.995,19.9575 L6.995,23.1275 C5.275,23.5715 4,25.1375 4,26.9945 C4,29.1965 5.791,30.9875 7.993,30.9875 C9.85,30.9875 11.415,29.7135 11.86,27.9915 L15.03,27.9915 C15.295,27.9915 15.549,27.8865 15.737,27.6985 L22.694,20.7405 C23.085,20.3505 23.085,19.7175 22.694,19.3265 L15.66,12.2925 L15.66,12.2925 Z M4.554,34.034 C4.218,33.81 3.781,33.81 3.445,34.034 C3.304,34.128 0,36.37 0,39.755 C0,42.022 1.794,43.866 4,43.866 C6.205,43.866 8,42.022 8,39.755 C8,36.37 4.695,34.128 4.554,34.034 L4.554,34.034 Z" sketch:type="MSShapeGroup"></path>
            </g>
        </g>
    </g>
</svg>