<?xml version="1.0" encoding="UTF-8" standalone="no"?>
<svg width="33px" height="34px" viewBox="0 0 33 34" version="1.1" xmlns="http://www.w3.org/2000/svg" xmlns:xlink="http://www.w3.org/1999/xlink" xmlns:sketch="http://www.bohemiancoding.com/sketch/ns">
    <!-- Generator: Sketch 3.0.4 (8053) - http://www.bohemiancoding.com/sketch -->
    <title>Paintbucket</title>
    <desc>Created with Sketch.</desc>
    <defs></defs>
    <g id="Icons" stroke="none" stroke-width="1" fill="none" fill-rule="evenodd" sketch:type="MSPage">
        <g id="Design-&amp;-Development" sketch:type="MSArtboardGroup" transform="translate(-200.000000, -243.000000)" fill="#231F1F">
            <g id="Paintbucket" sketch:type="MSLayerGroup" transform="translate(200.000000, 243.000000)">
                <path d="M19.0000542,0 C12.2130542,0 5.00005424,2.102 5.00005424,6 L5.00005424,13.684 L6.93005424,11.835 C7.32705424,11.451 7.96105424,11.466 8.34305424,11.865 C8.72605424,12.264 8.71205424,12.896 8.31305424,13.278 L0.816054245,20.462 C0.0290542445,21.219 -0.209945755,22.31 0.192054245,23.313 C0.604054245,24.338 1.60005424,25 2.73005424,25 L5.00005424,25 L5.00005424,28 C5.00005424,31.897 12.2130542,34 19.0000542,34 C25.7870542,34 33.0000542,31.897 33.0000542,28 L33.0000542,6 C33.0000542,2.102 25.7870542,0 19.0000542,0 L19.0000542,0 Z M5.00005424,23 L2.73005424,23 C2.25905424,23 2.08905424,22.669 2.04805424,22.567 C1.99205424,22.428 1.93805424,22.156 2.20205424,21.902 L5.00005424,19.221 L5.00005424,23 L5.00005424,23 Z M29.0000542,8 C29.0000542,10.209 27.2090542,12 25.0000542,12 C24.8620542,12 24.7330542,11.973 24.5990542,11.96 C23.9640542,13.449 22.6230542,14.556 21.0000542,14.887 L21.0000542,19 C21.0000542,19.553 20.5530542,20 20.0000542,20 C19.4470542,20 19.0000542,19.553 19.0000542,19 L19.0000542,14.899 C16.7180542,14.436 15.0000542,12.419 15.0000542,10 L15.0000542,8.802 C12.1290542,8.506 9.00005424,7.78 9.00005424,6 C9.00005424,5.447 9.44705424,5 10.0000542,5 C10.4770542,5 10.8750542,5.333 10.9760542,5.778 C11.5300542,6.222 14.3420542,7 19.0000542,7 C23.6580542,7 26.4700542,6.222 27.0240542,5.778 C27.1250542,5.333 27.5240542,5 28.0000542,5 C28.5530542,5 29.0000542,5.447 29.0000542,6 L29.0000542,8 L29.0000542,8 Z" sketch:type="MSShapeGroup"></path>
            </g>
        </g>
    </g>
</svg>