<?xml version="1.0" encoding="UTF-8" standalone="no"?>
<svg width="14px" height="43px" viewBox="0 0 14 43" version="1.1" xmlns="http://www.w3.org/2000/svg" xmlns:xlink="http://www.w3.org/1999/xlink" xmlns:sketch="http://www.bohemiancoding.com/sketch/ns">
    <!-- Generator: Sketch 3.0.4 (8053) - http://www.bohemiancoding.com/sketch -->
    <title>Pencil</title>
    <desc>Created with Sketch.</desc>
    <defs></defs>
    <g id="Icons" stroke="none" stroke-width="1" fill="none" fill-rule="evenodd" sketch:type="MSPage">
        <g id="Design-&amp;-Development" sketch:type="MSArtboardGroup" transform="translate(-333.000000, -238.000000)" fill="#231F1F">
            <g id="Pencil" sketch:type="MSLayerGroup" transform="translate(333.000000, 238.000000)">
                <path d="M14,4 L14,8 L0,8 L0,4 C0,1.794 1.794,0 4,0 L10,0 C12.205,0 14,1.794 14,4 L14,4 Z M4.272,41.204 C4.766,42.303 5.812,42.985 7,42.985 C8.188,42.985 9.233,42.303 9.728,41.204 L10.27,40 L3.73,40 L4.272,41.204 L4.272,41.204 Z M11,30 C11,30.553 10.552,31 10,31 C9.447,31 9,30.553 9,30 L9,9.994 L5,9.994 L5,30 C5,30.553 4.552,31 4,31 C3.447,31 3,30.553 3,30 L3,9.994 L0,9.994 L0,31.284 C0,31.567 0.06,31.847 0.176,32.105 L2.83,38 L11.17,38 L13.823,32.105 C13.94,31.847 14,31.567 14,31.285 L14,9.994 L11,9.994 L11,30 L11,30 Z" sketch:type="MSShapeGroup"></path>
            </g>
        </g>
    </g>
</svg>