<?xml version="1.0" encoding="utf-8"?>
<!-- Generator: Adobe Illustrator 19.2.1, SVG Export Plug-In . SVG Version: 6.00 Build 0)  -->
<svg version="1.1" id="Layer_1" xmlns="http://www.w3.org/2000/svg" xmlns:xlink="http://www.w3.org/1999/xlink" x="0px" y="0px"
	 viewBox="0 0 13.5 38.4" style="enable-background:new 0 0 13.5 38.4;" xml:space="preserve">
<style type="text/css">
	.st0{fill:#FFFFFF;}
</style>
<ellipse transform="matrix(0.7071 -0.7071 0.7071 0.7071 0.5018 7.4791)" cx="9.3" cy="3.1" rx="2.9" ry="2.9"/>
<ellipse transform="matrix(0.7071 -0.7071 0.7071 0.7071 -5.6148 4.9455)" cx="3.2" cy="9.3" rx="2.9" ry="2.9"/>
<rect x="1.9" y="5.5" transform="matrix(0.7071 -0.7071 0.7071 0.7071 -2.5565 6.2123)" width="8.7" height="1.4"/>
<ellipse transform="matrix(0.7071 -0.7071 0.7071 0.7071 -8.1483 11.0621)" cx="9.3" cy="15.4" rx="2.9" ry="2.9"/>
<rect x="1.9" y="11.6" transform="matrix(0.7071 0.7071 -0.7071 0.7071 10.5255 -0.7935)" width="8.7" height="1.4"/>
<ellipse transform="matrix(0.7071 -0.7071 0.7071 0.7071 -12.9871 13.0663)" class="st0" cx="9.3" cy="22.2" rx="2.9" ry="2.9"/>
<ellipse transform="matrix(0.7071 -0.7071 0.7071 0.7071 -19.1037 10.5328)" class="st0" cx="3.2" cy="28.3" rx="2.9" ry="2.9"/>
<rect x="1.9" y="24.5" transform="matrix(0.7071 -0.7071 0.7071 0.7071 -16.0454 11.7996)" class="st0" width="8.7" height="1.4"/>
<ellipse transform="matrix(0.7071 -0.7071 0.7071 0.7071 -21.6372 16.6494)" class="st0" cx="9.3" cy="34.4" rx="2.9" ry="2.9"/>
<rect x="1.9" y="30.7" transform="matrix(0.7071 0.7071 -0.7071 0.7071 24.0144 4.7938)" class="st0" width="8.7" height="1.4"/>
</svg>
