<?xml version="1.0" encoding="UTF-8" standalone="no"?>
<svg width="44px" height="44px" viewBox="0 0 44 44" version="1.1" xmlns="http://www.w3.org/2000/svg" xmlns:xlink="http://www.w3.org/1999/xlink" xmlns:sketch="http://www.bohemiancoding.com/sketch/ns">
    <!-- Generator: Sketch 3.0.4 (8053) - http://www.bohemiancoding.com/sketch -->
    <title>Text</title>
    <desc>Created with Sketch.</desc>
    <defs></defs>
    <g id="Icons" stroke="none" stroke-width="1" fill="none" fill-rule="evenodd" sketch:type="MSPage">
        <g id="Design-&amp;-Development" sketch:type="MSArtboardGroup" transform="translate(-558.000000, -238.000000)" fill="#231F1F">
            <g id="Text" sketch:type="MSLayerGroup" transform="translate(558.000000, 238.000000)">
                <path d="M12.001,12 L32.001,12 L32.001,19 L29.001,19 L29.001,18.97 C29.001,17.33 27.671,16 26.031,16 L25,16 L25,26.03 C25,27.67 26.33,29 27.971,29 L28,29 L28,32 L16.001,32 L16.001,29 L16.031,29 C17.671,29 19,27.67 19,26.03 L19,16 L17.971,16 C16.33,16 15.001,17.33 15.001,18.97 L15.001,19 L12.001,19 L12.001,12 L12.001,12 Z M42,8 L42,36 C43.103,36 44,36.897 44,38 L44,42 C44,43.103 43.103,44 42,44 L38,44 C36.898,44 36,43.103 36,42 L8,42 C8,43.103 7.103,44 6,44 L2,44 C0.898,44 0,43.103 0,42 L0,38 C0,36.897 0.898,36 2,36 L2,8 C0.898,8 0,7.103 0,6 L0,2 C0,0.897 0.898,0 2,0 L6,0 C7.103,0 8,0.897 8,2 L36,2 C36,0.897 36.898,0 38,0 L42,0 C43.103,0 44,0.897 44,2 L44,6 C44,7.103 43.103,8 42,8 L42,8 Z M2,6 L6.002,6 L6,2 L2,2 L2,6 L2,6 Z M6.002,42 L6,38 L2,38 L2,42 L6.002,42 L6.002,42 Z M38,36 L38,8 C36.898,8 36,7.103 36,6 L8,6 C8,7.103 7.103,8 6,8 L6,36 C7.103,36 8,36.897 8,38 L36,38 C36,36.897 36.898,36 38,36 L38,36 Z M42,38 L38,38 L38,42 L42.002,42 L42,38 L42,38 Z M42.002,6 L42,2 L38,2 L38,6 L42.002,6 L42.002,6 Z" sketch:type="MSShapeGroup"></path>
            </g>
        </g>
    </g>
</svg>